# xmcd CD database file
#
# Track frame offsets:
#	150
#	19018
#	37510
#	50195
#	68305
#	87057
#	110722
#	123033
#	136292
#
# Disc length: 2179 seconds
#
# Revision: 0
# Processed by: cddbd v1.5.2PL0 Copyright (c) Steve Scherf et al.
# Submitted via: CDex 1.70beta3
#
DISCID=66088109
DTITLE=Freddie Redd - Extemporaneous
DYEAR=1978
DGENRE=Jazz
TTITLE0=Night Song
TTITLE1=I'm Sorry
TTITLE2=Gateway East
TTITLE3=Blue Notes
TTITLE4=Syncopation Waltz
TTITLE5=Extemporaneous
TTITLE6=Unfinished Symphony
TTITLE7=For Art's Sake
TTITLE8=I'll Keep Loving
EXTD=YEAR: 1978
EXTT0=
EXTT1=
EXTT2=
EXTT3=
EXTT4=
EXTT5=
EXTT6=
EXTT7=
EXTT8=
PLAYORDER=
